<mxfile host="Electron" agent="Mozilla/5.0 (Windows NT 10.0; Win64; x64) AppleWebKit/537.36 (KHTML, like Gecko) draw.io/26.0.16 Chrome/132.0.6834.196 Electron/34.2.0 Safari/537.36" version="26.0.16">
  <diagram name="Страница — 1" id="S_BagiVzHHkTQhj-ocI5">
    <mxGraphModel dx="2261" dy="836" grid="1" gridSize="10" guides="1" tooltips="1" connect="1" arrows="1" fold="1" page="1" pageScale="1" pageWidth="827" pageHeight="1169" math="0" shadow="0">
      <root>
        <mxCell id="0" />
        <mxCell id="1" parent="0" />
        <mxCell id="UCTFRhoB2tN3OLbR3yIq-33" value="Runtime хранилища" style="rounded=1;whiteSpace=wrap;html=1;fillColor=none;dashed=1;verticalAlign=top;" vertex="1" parent="1">
          <mxGeometry x="300" y="300" width="350" height="130" as="geometry" />
        </mxCell>
        <mxCell id="UCTFRhoB2tN3OLbR3yIq-1" value="Пользователь" style="shape=umlActor;verticalLabelPosition=bottom;verticalAlign=top;html=1;outlineConnect=0;" vertex="1" parent="1">
          <mxGeometry x="-25" y="680" width="30" height="60" as="geometry" />
        </mxCell>
        <mxCell id="UCTFRhoB2tN3OLbR3yIq-4" value="" style="endArrow=none;dashed=1;html=1;dashPattern=1 3;strokeWidth=2;rounded=0;" edge="1" parent="1">
          <mxGeometry width="50" height="50" relative="1" as="geometry">
            <mxPoint x="280" y="830" as="sourcePoint" />
            <mxPoint x="280" y="240" as="targetPoint" />
          </mxGeometry>
        </mxCell>
        <mxCell id="UCTFRhoB2tN3OLbR3yIq-5" value="Среда для взаимодейства пользователем" style="text;html=1;align=center;verticalAlign=middle;whiteSpace=wrap;rounded=0;" vertex="1" parent="1">
          <mxGeometry x="70" y="220" width="200" height="30" as="geometry" />
        </mxCell>
        <mxCell id="UCTFRhoB2tN3OLbR3yIq-6" value="Программное строение" style="text;html=1;align=center;verticalAlign=middle;whiteSpace=wrap;rounded=0;" vertex="1" parent="1">
          <mxGeometry x="470" y="220" width="200" height="30" as="geometry" />
        </mxCell>
        <mxCell id="UCTFRhoB2tN3OLbR3yIq-7" value="Инструменты" style="rounded=1;whiteSpace=wrap;html=1;verticalAlign=top;dashed=1;" vertex="1" parent="1">
          <mxGeometry x="110" y="260" width="120" height="380" as="geometry" />
        </mxCell>
        <mxCell id="UCTFRhoB2tN3OLbR3yIq-8" value="CodeAgent tools" style="rounded=1;whiteSpace=wrap;html=1;dashed=1;dashPattern=8 8;verticalAlign=top;fillColor=#f8cecc;strokeColor=#b85450;" vertex="1" parent="1">
          <mxGeometry x="120" y="300" width="100" height="160" as="geometry" />
        </mxCell>
        <mxCell id="UCTFRhoB2tN3OLbR3yIq-9" value="Code&lt;b style=&quot;font-style: italic; text-decoration-line: underline;&quot;&gt;Act&lt;/b&gt; tools" style="rounded=1;whiteSpace=wrap;html=1;dashed=1;dashPattern=8 8;verticalAlign=top;fillColor=#dae8fc;strokeColor=#6c8ebf;" vertex="1" parent="1">
          <mxGeometry x="120" y="470" width="100" height="160" as="geometry" />
        </mxCell>
        <mxCell id="UCTFRhoB2tN3OLbR3yIq-11" value="PIP-пакеты" style="rounded=1;whiteSpace=wrap;html=1;fillColor=#f8cecc;strokeColor=#b85450;" vertex="1" parent="1">
          <mxGeometry x="130" y="340" width="80" height="50" as="geometry" />
        </mxCell>
        <mxCell id="UCTFRhoB2tN3OLbR3yIq-12" value="Local-файлы" style="rounded=1;whiteSpace=wrap;html=1;fillColor=#f8cecc;strokeColor=#b85450;" vertex="1" parent="1">
          <mxGeometry x="130" y="400" width="80" height="50" as="geometry" />
        </mxCell>
        <mxCell id="UCTFRhoB2tN3OLbR3yIq-13" value="Local-callables" style="rounded=1;whiteSpace=wrap;html=1;fillColor=#dae8fc;strokeColor=#6c8ebf;" vertex="1" parent="1">
          <mxGeometry x="130" y="505" width="80" height="50" as="geometry" />
        </mxCell>
        <mxCell id="UCTFRhoB2tN3OLbR3yIq-14" value="MCP servers" style="rounded=1;whiteSpace=wrap;html=1;fillColor=#dae8fc;strokeColor=#6c8ebf;" vertex="1" parent="1">
          <mxGeometry x="130" y="565" width="80" height="50" as="geometry" />
        </mxCell>
        <mxCell id="UCTFRhoB2tN3OLbR3yIq-15" value="Streamlit GUI" style="rounded=1;whiteSpace=wrap;html=1;fillColor=#ffe6cc;strokeColor=#d79b00;" vertex="1" parent="1">
          <mxGeometry x="110" y="660" width="120" height="110" as="geometry" />
        </mxCell>
        <mxCell id="UCTFRhoB2tN3OLbR3yIq-16" value="PyDoc-документации" style="shape=cylinder3;whiteSpace=wrap;html=1;boundedLbl=1;backgroundOutline=1;size=15;fillColor=#f8cecc;strokeColor=#b85450;" vertex="1" parent="1">
          <mxGeometry x="320" y="340" width="80" height="80" as="geometry" />
        </mxCell>
        <mxCell id="UCTFRhoB2tN3OLbR3yIq-17" value="" style="endArrow=classic;html=1;rounded=0;exitX=1;exitY=0.5;exitDx=0;exitDy=0;" edge="1" parent="1" source="UCTFRhoB2tN3OLbR3yIq-8" target="UCTFRhoB2tN3OLbR3yIq-16">
          <mxGeometry width="50" height="50" relative="1" as="geometry">
            <mxPoint x="350" y="510" as="sourcePoint" />
            <mxPoint x="400" y="460" as="targetPoint" />
          </mxGeometry>
        </mxCell>
        <mxCell id="UCTFRhoB2tN3OLbR3yIq-18" value="" style="shape=image;verticalLabelPosition=bottom;labelBackgroundColor=default;verticalAlign=top;aspect=fixed;imageAspect=0;image=https://cdn-icons-png.flaticon.com/512/832/832051.png;" vertex="1" parent="1">
          <mxGeometry x="-50" y="315" width="80" height="80" as="geometry" />
        </mxCell>
        <mxCell id="UCTFRhoB2tN3OLbR3yIq-20" value="Окружение" style="text;html=1;align=center;verticalAlign=middle;whiteSpace=wrap;rounded=0;" vertex="1" parent="1">
          <mxGeometry x="-50" y="385" width="80" height="30" as="geometry" />
        </mxCell>
        <mxCell id="UCTFRhoB2tN3OLbR3yIq-21" value="" style="endArrow=classic;html=1;rounded=0;exitX=-0.022;exitY=0.106;exitDx=0;exitDy=0;entryX=0.5;entryY=0;entryDx=0;entryDy=0;exitPerimeter=0;edgeStyle=orthogonalEdgeStyle;" edge="1" parent="1" source="UCTFRhoB2tN3OLbR3yIq-7" target="UCTFRhoB2tN3OLbR3yIq-18">
          <mxGeometry width="50" height="50" relative="1" as="geometry">
            <mxPoint x="350" y="510" as="sourcePoint" />
            <mxPoint x="400" y="460" as="targetPoint" />
            <Array as="points">
              <mxPoint x="70" y="300" />
              <mxPoint x="-10" y="300" />
            </Array>
          </mxGeometry>
        </mxCell>
        <mxCell id="UCTFRhoB2tN3OLbR3yIq-22" value="" style="endArrow=classic;html=1;rounded=0;entryX=0;entryY=0.5;entryDx=0;entryDy=0;" edge="1" parent="1" target="UCTFRhoB2tN3OLbR3yIq-15">
          <mxGeometry width="50" height="50" relative="1" as="geometry">
            <mxPoint x="10" y="715" as="sourcePoint" />
            <mxPoint x="400" y="460" as="targetPoint" />
          </mxGeometry>
        </mxCell>
        <mxCell id="UCTFRhoB2tN3OLbR3yIq-23" value="" style="endArrow=classic;html=1;rounded=0;entryX=0;entryY=0.75;entryDx=0;entryDy=0;edgeStyle=orthogonalEdgeStyle;" edge="1" parent="1" target="UCTFRhoB2tN3OLbR3yIq-7">
          <mxGeometry width="50" height="50" relative="1" as="geometry">
            <mxPoint x="10" y="690" as="sourcePoint" />
            <mxPoint x="60" y="529.58" as="targetPoint" />
          </mxGeometry>
        </mxCell>
        <mxCell id="UCTFRhoB2tN3OLbR3yIq-24" value="Выбор инструментов" style="text;html=1;align=center;verticalAlign=middle;whiteSpace=wrap;rounded=0;" vertex="1" parent="1">
          <mxGeometry x="5" y="515" width="100" height="30" as="geometry" />
        </mxCell>
        <mxCell id="UCTFRhoB2tN3OLbR3yIq-25" value="Задачи" style="text;html=1;align=center;verticalAlign=middle;whiteSpace=wrap;rounded=0;" vertex="1" parent="1">
          <mxGeometry x="30" y="720" width="60" height="30" as="geometry" />
        </mxCell>
        <mxCell id="UCTFRhoB2tN3OLbR3yIq-27" value="ExCodeAgent-MM" style="rounded=1;whiteSpace=wrap;html=1;fillColor=#f8cecc;strokeColor=#b85450;" vertex="1" parent="1">
          <mxGeometry x="300" y="445" width="120" height="60" as="geometry" />
        </mxCell>
        <mxCell id="UCTFRhoB2tN3OLbR3yIq-28" value="ExCode&lt;b&gt;&lt;u&gt;&lt;i&gt;Act&lt;/i&gt;&lt;/u&gt;&lt;/b&gt;-MM" style="rounded=1;whiteSpace=wrap;html=1;fillColor=#f8cecc;strokeColor=#b85450;" vertex="1" parent="1">
          <mxGeometry x="430" y="580" width="120" height="60" as="geometry" />
        </mxCell>
        <mxCell id="UCTFRhoB2tN3OLbR3yIq-29" value="" style="endArrow=classic;html=1;rounded=0;exitX=1;exitY=0.75;exitDx=0;exitDy=0;edgeStyle=orthogonalEdgeStyle;" edge="1" parent="1" source="UCTFRhoB2tN3OLbR3yIq-9">
          <mxGeometry width="50" height="50" relative="1" as="geometry">
            <mxPoint x="220" y="570" as="sourcePoint" />
            <mxPoint x="430" y="610" as="targetPoint" />
            <Array as="points">
              <mxPoint x="310" y="590" />
              <mxPoint x="310" y="610" />
              <mxPoint x="430" y="610" />
            </Array>
          </mxGeometry>
        </mxCell>
        <mxCell id="UCTFRhoB2tN3OLbR3yIq-30" value="" style="endArrow=classic;html=1;rounded=0;exitX=0.5;exitY=1;exitDx=0;exitDy=0;exitPerimeter=0;entryX=0.5;entryY=0;entryDx=0;entryDy=0;" edge="1" parent="1" source="UCTFRhoB2tN3OLbR3yIq-16" target="UCTFRhoB2tN3OLbR3yIq-27">
          <mxGeometry width="50" height="50" relative="1" as="geometry">
            <mxPoint x="350" y="590" as="sourcePoint" />
            <mxPoint x="400" y="540" as="targetPoint" />
          </mxGeometry>
        </mxCell>
        <mxCell id="UCTFRhoB2tN3OLbR3yIq-31" value="Переменные запусков" style="shape=cylinder3;whiteSpace=wrap;html=1;boundedLbl=1;backgroundOutline=1;size=15;fillColor=#dae8fc;strokeColor=#6c8ebf;" vertex="1" parent="1">
          <mxGeometry x="440" y="340" width="80" height="80" as="geometry" />
        </mxCell>
        <mxCell id="UCTFRhoB2tN3OLbR3yIq-32" value="CodeResults" style="shape=cylinder3;whiteSpace=wrap;html=1;boundedLbl=1;backgroundOutline=1;size=15;fillColor=#fff2cc;strokeColor=#d6b656;" vertex="1" parent="1">
          <mxGeometry x="550" y="340" width="80" height="80" as="geometry" />
        </mxCell>
        <mxCell id="UCTFRhoB2tN3OLbR3yIq-34" value="" style="endArrow=classic;html=1;rounded=0;exitX=0;exitY=0.25;exitDx=0;exitDy=0;entryX=1.003;entryY=0.664;entryDx=0;entryDy=0;edgeStyle=orthogonalEdgeStyle;entryPerimeter=0;" edge="1" parent="1" source="UCTFRhoB2tN3OLbR3yIq-28" target="UCTFRhoB2tN3OLbR3yIq-9">
          <mxGeometry width="50" height="50" relative="1" as="geometry">
            <mxPoint x="400" y="535" as="sourcePoint" />
            <mxPoint x="280" y="550" as="targetPoint" />
          </mxGeometry>
        </mxCell>
        <mxCell id="UCTFRhoB2tN3OLbR3yIq-35" value="" style="endArrow=classic;html=1;rounded=0;exitX=1;exitY=0.25;exitDx=0;exitDy=0;entryX=0.5;entryY=1;entryDx=0;entryDy=0;entryPerimeter=0;edgeStyle=orthogonalEdgeStyle;startArrow=classic;startFill=1;" edge="1" parent="1" source="UCTFRhoB2tN3OLbR3yIq-27" target="UCTFRhoB2tN3OLbR3yIq-31">
          <mxGeometry width="50" height="50" relative="1" as="geometry">
            <mxPoint x="310" y="580" as="sourcePoint" />
            <mxPoint x="360" y="530" as="targetPoint" />
          </mxGeometry>
        </mxCell>
        <mxCell id="UCTFRhoB2tN3OLbR3yIq-36" value="" style="endArrow=classic;html=1;rounded=0;exitX=1;exitY=0.5;exitDx=0;exitDy=0;entryX=0.5;entryY=1;entryDx=0;entryDy=0;entryPerimeter=0;edgeStyle=orthogonalEdgeStyle;startArrow=none;startFill=0;" edge="1" parent="1" source="UCTFRhoB2tN3OLbR3yIq-27" target="UCTFRhoB2tN3OLbR3yIq-32">
          <mxGeometry width="50" height="50" relative="1" as="geometry">
            <mxPoint x="430" y="470" as="sourcePoint" />
            <mxPoint x="490" y="430" as="targetPoint" />
          </mxGeometry>
        </mxCell>
        <mxCell id="UCTFRhoB2tN3OLbR3yIq-37" value="" style="endArrow=classic;html=1;rounded=0;exitX=0.25;exitY=0;exitDx=0;exitDy=0;entryX=0.25;entryY=1;entryDx=0;entryDy=0;edgeStyle=orthogonalEdgeStyle;" edge="1" parent="1" source="UCTFRhoB2tN3OLbR3yIq-28" target="UCTFRhoB2tN3OLbR3yIq-27">
          <mxGeometry width="50" height="50" relative="1" as="geometry">
            <mxPoint x="240" y="600" as="sourcePoint" />
            <mxPoint x="290" y="550" as="targetPoint" />
          </mxGeometry>
        </mxCell>
        <mxCell id="UCTFRhoB2tN3OLbR3yIq-38" value="" style="endArrow=classic;html=1;rounded=0;exitX=1;exitY=0.5;exitDx=0;exitDy=0;exitPerimeter=0;entryX=1;entryY=0.75;entryDx=0;entryDy=0;edgeStyle=orthogonalEdgeStyle;" edge="1" parent="1" source="UCTFRhoB2tN3OLbR3yIq-32" target="UCTFRhoB2tN3OLbR3yIq-15">
          <mxGeometry width="50" height="50" relative="1" as="geometry">
            <mxPoint x="420" y="580" as="sourcePoint" />
            <mxPoint x="470" y="530" as="targetPoint" />
            <Array as="points">
              <mxPoint x="660" y="380" />
              <mxPoint x="660" y="743" />
            </Array>
          </mxGeometry>
        </mxCell>
        <mxCell id="UCTFRhoB2tN3OLbR3yIq-39" value="" style="endArrow=classic;html=1;rounded=0;exitX=1;exitY=0.25;exitDx=0;exitDy=0;entryX=0.25;entryY=1;entryDx=0;entryDy=0;edgeStyle=orthogonalEdgeStyle;" edge="1" parent="1" source="UCTFRhoB2tN3OLbR3yIq-15" target="UCTFRhoB2tN3OLbR3yIq-28">
          <mxGeometry width="50" height="50" relative="1" as="geometry">
            <mxPoint x="420" y="580" as="sourcePoint" />
            <mxPoint x="470" y="530" as="targetPoint" />
          </mxGeometry>
        </mxCell>
        <mxCell id="UCTFRhoB2tN3OLbR3yIq-40" value="Задачи" style="text;html=1;align=center;verticalAlign=middle;whiteSpace=wrap;rounded=0;" vertex="1" parent="1">
          <mxGeometry x="313" y="663" width="60" height="30" as="geometry" />
        </mxCell>
        <mxCell id="UCTFRhoB2tN3OLbR3yIq-41" value="Полученные модальности" style="text;html=1;align=center;verticalAlign=middle;whiteSpace=wrap;rounded=0;" vertex="1" parent="1">
          <mxGeometry x="400" y="750" width="110" height="30" as="geometry" />
        </mxCell>
        <mxCell id="UCTFRhoB2tN3OLbR3yIq-42" value="" style="endArrow=classic;html=1;rounded=0;exitX=0.75;exitY=1;exitDx=0;exitDy=0;entryX=1;entryY=0.5;entryDx=0;entryDy=0;edgeStyle=orthogonalEdgeStyle;" edge="1" parent="1" source="UCTFRhoB2tN3OLbR3yIq-28" target="UCTFRhoB2tN3OLbR3yIq-15">
          <mxGeometry width="50" height="50" relative="1" as="geometry">
            <mxPoint x="420" y="580" as="sourcePoint" />
            <mxPoint x="470" y="530" as="targetPoint" />
          </mxGeometry>
        </mxCell>
        <mxCell id="UCTFRhoB2tN3OLbR3yIq-43" value="Результаты" style="text;html=1;align=center;verticalAlign=middle;whiteSpace=wrap;rounded=0;" vertex="1" parent="1">
          <mxGeometry x="344" y="693" width="60" height="30" as="geometry" />
        </mxCell>
        <mxCell id="UCTFRhoB2tN3OLbR3yIq-44" value="Действия" style="text;html=1;align=center;verticalAlign=middle;whiteSpace=wrap;rounded=0;" vertex="1" parent="1">
          <mxGeometry y="270" width="60" height="30" as="geometry" />
        </mxCell>
        <mxCell id="UCTFRhoB2tN3OLbR3yIq-45" value="" style="endArrow=classic;html=1;rounded=0;exitX=1;exitY=0.5;exitDx=0;exitDy=0;entryX=0;entryY=0.25;entryDx=0;entryDy=0;" edge="1" parent="1" source="UCTFRhoB2tN3OLbR3yIq-18" target="UCTFRhoB2tN3OLbR3yIq-7">
          <mxGeometry width="50" height="50" relative="1" as="geometry">
            <mxPoint x="220" y="340" as="sourcePoint" />
            <mxPoint x="270" y="290" as="targetPoint" />
          </mxGeometry>
        </mxCell>
        <mxCell id="UCTFRhoB2tN3OLbR3yIq-46" value="Данные" style="text;html=1;align=center;verticalAlign=middle;whiteSpace=wrap;rounded=0;" vertex="1" parent="1">
          <mxGeometry x="30" y="350" width="80" height="30" as="geometry" />
        </mxCell>
        <mxCell id="UCTFRhoB2tN3OLbR3yIq-47" value="Аргументы" style="text;html=1;align=center;verticalAlign=middle;whiteSpace=wrap;rounded=0;" vertex="1" parent="1">
          <mxGeometry x="361" y="537" width="60" height="30" as="geometry" />
        </mxCell>
        <mxCell id="UCTFRhoB2tN3OLbR3yIq-48" value="Аргументы" style="text;html=1;align=center;verticalAlign=middle;whiteSpace=wrap;rounded=0;" vertex="1" parent="1">
          <mxGeometry x="339" y="568" width="60" height="30" as="geometry" />
        </mxCell>
        <mxCell id="UCTFRhoB2tN3OLbR3yIq-49" value="Результат" style="text;html=1;align=center;verticalAlign=middle;whiteSpace=wrap;rounded=0;" vertex="1" parent="1">
          <mxGeometry x="322" y="607" width="60" height="30" as="geometry" />
        </mxCell>
        <mxCell id="UCTFRhoB2tN3OLbR3yIq-50" value="" style="endArrow=classic;html=1;rounded=0;exitX=0.5;exitY=1;exitDx=0;exitDy=0;entryX=0.5;entryY=0;entryDx=0;entryDy=0;edgeStyle=orthogonalEdgeStyle;" edge="1" parent="1" source="UCTFRhoB2tN3OLbR3yIq-27" target="UCTFRhoB2tN3OLbR3yIq-28">
          <mxGeometry width="50" height="50" relative="1" as="geometry">
            <mxPoint x="370" y="530" as="sourcePoint" />
            <mxPoint x="420" y="480" as="targetPoint" />
            <Array as="points">
              <mxPoint x="360" y="530" />
              <mxPoint x="490" y="530" />
            </Array>
          </mxGeometry>
        </mxCell>
        <mxCell id="UCTFRhoB2tN3OLbR3yIq-51" value="Результат" style="text;html=1;align=center;verticalAlign=middle;whiteSpace=wrap;rounded=0;" vertex="1" parent="1">
          <mxGeometry x="490" y="534" width="60" height="30" as="geometry" />
        </mxCell>
        <mxCell id="UCTFRhoB2tN3OLbR3yIq-53" value="Результаты кода" style="text;html=1;align=center;verticalAlign=middle;whiteSpace=wrap;rounded=0;" vertex="1" parent="1">
          <mxGeometry x="520" y="475" width="60" height="30" as="geometry" />
        </mxCell>
      </root>
    </mxGraphModel>
  </diagram>
</mxfile>
